<?xml version="1.0" encoding="UTF-8"?><svg id="Layer_1" xmlns="http://www.w3.org/2000/svg" viewBox="0 0 926.4 758.04"><defs><style>.cls-1{fill:#fff;}</style></defs><path class="cls-1" d="m0,758.04L381.4,0h89.53l-5.57,84.48h-75.94l-82.97,252.68h95.13l-12.81,83.78h-109.83l-83.02,252.63h230.52l-5.57,84.48H0Z"/><path class="cls-1" d="m421.04,758.04l13.89-210.79c6.51-98.96,44.97-155.04,113.07-168.2-67.89-13.16-97.29-69.21-90.91-168.2L470.98.05h35.78l27.48,252.68c2.49,22.89,8.95,42.7,19.84,59.45,11.43,16.7,23.89,25.05,36.92,25.05s22.02-8.35,27.02-25.05c4.38-16.73,3.08-36.54-3.43-59.45L542.71,0h35.78l96.77,210.79c45.43,98.99,37.83,155.04-24.81,168.2,73.48,13.7,134.07,69.89,179.36,168.58l96.59,210.47h-168.17l-71.83-252.68c-6.24-22.38-17.93-42.86-34.02-59.62-15.27-16.59-30.13-24.86-45.02-24.86s-26.7,8.27-35.4,24.86c-9.24,16.59-12.84,36.46-10.3,59.62l27.48,252.68h-168.09Z"/></svg>